<svg width="171" height="76" viewBox="0 0 171 76" fill="none" xmlns="http://www.w3.org/2000/svg">
<path d="M158.609 0.75C158.69 0.864809 158.789 1.00815 158.905 1.17383C159.23 1.6361 159.684 2.27819 160.201 2.99902C161.232 4.43764 162.523 6.20213 163.536 7.46875C164.577 8.76987 166.116 10.2367 167.371 11.3613C168.003 11.9277 168.572 12.415 168.982 12.7607C169.135 12.8894 169.268 12.9975 169.372 13.084V62.8691C169.293 62.9235 169.2 62.986 169.097 63.0586C168.711 63.3297 168.167 63.7273 167.529 64.2354C166.255 65.2497 164.593 66.7151 163.053 68.5117C161.517 70.3029 160.337 72.0904 159.541 73.4287C159.143 74.0987 158.839 74.6588 158.635 75.0527C158.598 75.1237 158.566 75.1901 158.535 75.25H11.5869C11.5564 75.1901 11.5242 75.1237 11.4873 75.0527C11.2826 74.6588 10.9785 74.0987 10.5801 73.4287C9.78425 72.0904 8.60449 70.3027 7.06934 68.5117C5.52922 66.7149 3.86581 65.2497 2.5918 64.2354C1.95374 63.7273 1.41075 63.3297 1.02539 63.0586C0.922175 62.986 0.829461 62.9235 0.75 62.8691V13.084C0.854532 12.9975 0.986892 12.8893 1.13965 12.7607C1.55034 12.415 2.11908 11.9276 2.75098 11.3613C4.00591 10.2366 5.54506 8.76985 6.58594 7.46875C7.59923 6.20213 8.88966 4.43764 9.9209 2.99902C10.4376 2.27818 10.892 1.63608 11.2168 1.17383C11.3333 1.00809 11.4324 0.86483 11.5127 0.75H158.609Z" stroke="url(#paint0_linear_1_430)" stroke-width="1.5"/>
<defs>
<linearGradient id="paint0_linear_1_430" x1="-0.878162" y1="38.0693" x2="170.122" y2="38.0693" gradientUnits="userSpaceOnUse">
<stop stop-color="#532A17"/>
<stop offset="0.0721154" stop-color="#E5D38A"/>
<stop offset="0.504808" stop-color="#4A1403"/>
<stop offset="0.774038" stop-color="#E5D38A"/>
<stop offset="1" stop-color="#532A17"/>
</linearGradient>
</defs>
</svg>
