<svg width="164" height="30" viewBox="0 0 164 30" fill="none" xmlns="http://www.w3.org/2000/svg">
<path d="M11.6865 0.5H153.252C153.511 0.50006 153.769 0.548846 154.01 0.644531C154.43 0.811353 154.784 1.11279 155.016 1.50098L156.764 4.4248C157.365 5.43033 158.289 6.15412 159.16 6.76855C161.47 8.39776 163.059 11.4561 163.059 15C163.059 18.6565 161.368 21.7935 158.939 23.3799C158.184 23.8735 157.379 24.447 156.789 25.2441L154.609 28.1865C153.906 29.019 152.872 29.4999 151.781 29.5H11.3467C10.4301 29.4999 9.54393 29.1707 8.84961 28.5723C8.54315 28.3081 8.28027 27.9968 8.07129 27.6504L6.82031 25.5762C6.216 24.5744 5.29099 23.8549 4.41895 23.2441C2.0982 21.6188 0.5 18.5541 0.5 15C0.5 11.3565 2.17844 8.22787 4.59277 6.63574C5.35041 6.13613 6.15564 5.55513 6.74414 4.75L8.88574 1.81836C9.57623 0.983456 10.6031 0.500009 11.6865 0.5Z" stroke="url(#paint0_linear_1_52)"/>
<defs>
<linearGradient id="paint0_linear_1_52" x1="0" y1="15.0274" x2="163.559" y2="15.0274" gradientUnits="userSpaceOnUse">
<stop stop-color="#532A17"/>
<stop offset="0.0721154" stop-color="#E5D38A"/>
<stop offset="0.504808" stop-color="#4A1403"/>
<stop offset="0.774038" stop-color="#E5D38A"/>
<stop offset="1" stop-color="#532A17"/>
</linearGradient>
</defs>
</svg>
